<?xml version="1.0" encoding="UTF-8" standalone="no"?>
<!-- Created with Inkscape (http://www.inkscape.org/) -->

<svg
   xmlns:dc="http://purl.org/dc/elements/1.1/"
   xmlns:cc="http://creativecommons.org/ns#"
   xmlns:rdf="http://www.w3.org/1999/02/22-rdf-syntax-ns#"
   xmlns:svg="http://www.w3.org/2000/svg"
   xmlns="http://www.w3.org/2000/svg"
   xmlns:sodipodi="http://sodipodi.sourceforge.net/DTD/sodipodi-0.dtd"
   xmlns:inkscape="http://www.inkscape.org/namespaces/inkscape"
   width="210mm"
   height="297mm"
   viewBox="0 0 210 297"
   version="1.1"
   id="svg6079"
   sodipodi:docname="zmd.svg"
   inkscape:version="0.92.1 r15371">
  <defs
     id="defs6073" />
  <sodipodi:namedview
     id="base"
     pagecolor="#ffffff"
     bordercolor="#666666"
     borderopacity="1.0"
     inkscape:pageopacity="0.0"
     inkscape:pageshadow="2"
     inkscape:zoom="0.35"
     inkscape:cx="400"
     inkscape:cy="560"
     inkscape:document-units="mm"
     inkscape:current-layer="layer1"
     showgrid="false"
     inkscape:window-width="1360"
     inkscape:window-height="706"
     inkscape:window-x="-8"
     inkscape:window-y="-8"
     inkscape:window-maximized="1" />
  <metadata
     id="metadata6076">
    <rdf:RDF>
      <cc:Work
         rdf:about="">
        <dc:format>image/svg+xml</dc:format>
        <dc:type
           rdf:resource="http://purl.org/dc/dcmitype/StillImage" />
        <dc:title></dc:title>
      </cc:Work>
    </rdf:RDF>
  </metadata>
  <g
     inkscape:label="Capa 1"
     inkscape:groupmode="layer"
     id="layer1">
    <path
       style="fill:#280b0b;stroke-width:0.30692482"
       id="path6091"
       d="m 1.8930768,107.59269 c 1.33068,-1.4725 5.41579,-6.00127 6.0698,-6.66628 4.6433602,-4.72148 12.5337802,-12.04753 17.1137002,-16.23608 8.83908,-8.08373 16.30813,-14.64537 25.30435,-22.62625 11.18149,-9.530716 21.80301,-19.807761 33.24203,-29.01086 2.35943,-1.898247 4.68159,-3.88606 7.26735,-5.427018 17.787573,-10.600321 11.836443,-12.169605 21.812433,-6.914392 0.58848,2.89602 1.7493,5.727175 1.76543,8.688061 0.0572,10.507953 -4.38095,32.170338 -6.06602,40.725199 -2.05661,10.44111 -4.32015,20.83632 -6.50274,31.24931 -11.912063,56.83169 -2.937675,13.13463 -14.597283,70.483 -2.54341,13.32403 -8.23517,41.4226 -9.92647,56.0714 -0.62585,5.42069 -1.71928,10.98611 -0.7937,16.35951 1.69813,9.85834 9.4323,3.99495 13.23234,0.97961 2.17152,-1.72311 3.50344,-4.3714 5.255158,-6.55709 25.034275,-22.04404 49.368435,-44.94069 73.842945,-67.65831 0,0 6.55315,-2.79762 6.55315,-2.79762 v 0 c -23.50188,22.03428 -46.89372,44.19426 -70.38089,66.24551 -8.504495,6.39874 -16.534523,13.55383 -25.513483,19.19622 -3.07888,1.93478 -6.8443,4.33659 -10.29747,3.30745 -2.44448,-0.72853 -3.03328,-4.63756 -3.09779,-7.29962 -0.14166,-5.84615 1.45824,-11.60221 2.50055,-17.34736 1.51569,-8.35438 10.84849,-51.50308 12.06473,-57.17525 4.24218,-21.24821 9.81573,-48.58388 13.632608,-69.98002 1.80721,-10.13056 3.54936,-20.27676 5.03878,-30.46392 1.581175,-10.81488 3.895405,-26.877548 3.088055,-38.577591 -0.16942,-2.455206 -1.20401,-4.758852 -1.80601,-7.138277 -1.152765,-0.539708 -3.934995,-0.394083 -3.458285,-1.619124 0.95182,-2.445987 8.344265,-5.764568 5.977505,-4.85482 -3.00649,1.155652 -5.390145,3.632911 -7.970115,5.62075 C 83.337037,37.34283 72.393757,47.83001 60.936697,57.585979 50.867657,66.6256 46.252167,70.65266 36.576367,79.77083 c -4.44358,4.18749 -11.2211,10.70144 -15.59961,15.44202 -2.66204,2.88217 -3.09934,3.60335 -5.0259,6.27858 0,0 -14.0577802,6.10126 -14.0577802,6.10126 z"
       inkscape:connector-curvature="0" />
    <path
       style="fill:#280b0b;stroke-width:0.1885884"
       id="path6109"
       d="m 90.804059,167.48748 c 0.226801,-3.17912 -0.01993,-6.38319 0.243205,-9.55979 0.07861,-0.94902 0.234723,-1.88965 0.352085,-2.83448 0.899551,-4.29927 2.55892,-8.65728 5.678291,-11.81131 0.4494,-0.45439 0.96927,-0.82973 1.453904,-1.2446 1.966566,1.09291 7.068576,-6.32808 11.117296,-5.53548 3.29379,0.6448 5.39834,4.60385 6.96885,7.21089 3.30922,6.79704 4.65783,14.3606 6.01183,21.76572 0.0209,0.1268 0.62147,3.81313 0.72466,4.32093 0.72882,3.58671 3.33355,2.42509 -8.00068,4.10353 -0.66496,0.0985 0.1136,-1.36834 0.15136,-2.05378 0.0601,-1.0915 0.0949,-2.18429 0.1423,-3.27644 0.32278,-8.49768 -0.0849,-17.0002 0.31588,-25.49434 0.20335,-1.74929 0.23191,-2.8679 0.75628,-4.50193 1.34523,-4.19198 7.14133,-5.70692 10.25524,-7.10357 0.33557,-0.15051 0.68078,0.27751 1.02118,0.41626 0.32538,0.22459 0.68599,0.40344 0.97615,0.67377 2.31957,2.16097 3.33391,7.38354 4.14331,10.37474 0.63397,2.22979 1.05703,4.5109 1.5484,6.77478 0.0966,0.44514 0.18918,0.89195 0.31365,1.32982 0.056,0.19703 0.40184,0.47034 0.2265,0.57035 -2.70932,1.54541 -5.60172,2.72889 -8.40258,4.09334 0.077,-0.2445 0.19227,-0.47973 0.23098,-0.7335 0.28158,-1.84581 0.14414,-3.79889 0.27195,-5.65754 0.1921,-2.79367 0.2221,-2.56288 0.67903,-5.34794 0.45495,-2.28986 1.15667,-4.52316 2.34974,-6.52984 0.25899,-0.43562 1.2504,-1.88319 1.80005,-2.20068 2.94694,-1.70219 5.99641,-3.21206 8.99461,-4.81808 0.34924,0.2311 0.74061,0.40647 1.04772,0.69332 1.84672,1.72492 2.18648,4.81032 2.61061,7.13947 0.20418,1.12129 0.39589,2.24491 0.59384,3.36736 1.24984,6.56341 2.0721,13.20503 3.27382,19.77638 0.84962,4.64592 1.27003,6.20464 2.32448,10.70908 0.80675,3.5468 1.94482,6.99509 3.10097,10.43367 0,0 -7.84514,4.38991 -7.84514,4.38991 v 0 c -0.95083,-3.5692 -1.8909,-7.1427 -2.63924,-10.76365 -0.75039,-3.51617 -1.57211,-7.2773 -2.24318,-10.8031 -1.23698,-6.49902 -2.27199,-13.0408 -3.74365,-19.49239 -0.1776,-0.79188 -1.04897,-4.76087 -1.34384,-5.79793 -0.32127,-1.12994 -0.83208,-2.9827 -1.90875,-3.6969 -0.20791,-0.13792 -0.47838,-0.13299 -0.71757,-0.19949 2.37405,-1.49967 4.73152,-3.0271 7.12214,-4.49903 0.35775,-0.22026 -0.7137,0.4532 -1.02085,0.74242 -2.08106,1.95949 -3.02556,4.80736 -3.69004,7.52776 -0.15421,0.87161 -0.35192,1.73634 -0.46261,2.61483 -0.38286,3.03853 -0.24766,6.14845 -0.0585,9.19395 -2.87342,1.48801 -5.65016,3.18955 -8.62027,4.46405 -0.21819,0.0936 -0.0797,-0.47673 -0.11441,-0.71593 -0.0676,-0.46587 -0.12192,-0.93369 -0.1922,-1.39914 -0.34486,-2.28424 -0.77602,-4.55466 -1.35224,-6.79089 -0.7334,-2.66957 -1.79465,-7.8085 -4.11871,-9.55677 -0.25677,-0.19315 -0.57186,-0.28832 -0.85779,-0.43247 -3.56129,-0.2664 -1.06589,0.0747 6.39494,-4.56552 0.30869,-0.19199 -0.65432,0.34506 -0.90308,0.61289 -1.38482,1.491 -1.527,3.78909 -1.90332,5.66885 -0.78205,8.45382 -0.50413,16.95205 -0.32235,25.43084 0.0363,1.0548 0.0743,2.10953 0.10866,3.16438 0.0219,0.66977 0.55265,1.567 0.0601,2.00947 -9.22293,8.28478 -8.16765,8.63948 -8.47074,4.51669 -0.1538,-2.09212 -0.18093,-2.11952 -0.43607,-4.44022 -1.02766,-7.36438 -2.39026,-14.80713 -5.86611,-21.43178 -1.35167,-2.11717 -2.6894,-4.57501 -5.02963,-5.73798 -0.50534,-0.25113 -1.07283,-0.40565 -1.63456,-0.42149 -0.52302,-0.0148 -1.95794,0.64775 -1.53564,0.33212 1.97873,-1.47888 4.19582,-2.59218 6.29373,-3.88828 -0.52011,0.37452 -1.07562,0.70236 -1.56034,1.12355 -3.29715,2.86494 -5.09829,7.13803 -6.042943,11.34756 -0.11135,0.90767 -0.269643,1.81063 -0.334049,2.72304 -0.219059,3.10326 0.09424,6.24154 0.115679,9.3462 0,0 -8.402285,4.37434 -8.402285,4.37434 z"
       inkscape:connector-curvature="0" />
    <path
       style="fill:#280b0b;stroke-width:0.26458332"
       id="path6111"
       d="m 178.29994,106.9605 c -3.05764,3.46867 -5.84445,7.3206 -7.80098,11.53085 -0.57325,1.23356 -1.02946,2.51821 -1.54419,3.77732 -2.72543,8.02924 -3.60553,16.47737 -3.71935,24.90826 0.25115,3.24533 0.23814,7.25338 2.792,9.71716 1.38647,1.33756 2.78095,1.6761 4.53395,2.37563 4.31137,1.35108 8.80744,1.43115 13.27774,1.48294 0,0 -10.37356,7.50222 -10.37356,7.50222 v 0 c -4.60563,-0.14811 -9.24566,-0.30812 -13.65552,-1.81115 -2.09738,-0.92793 -3.39863,-1.24882 -5.02307,-2.92795 -2.68169,-2.77195 -2.78058,-6.98649 -2.9444,-10.56815 0.2914,-8.55868 1.16723,-17.1143 3.64056,-25.35232 0.45691,-1.28121 0.85071,-2.5867 1.37072,-3.84362 1.73429,-4.19204 4.41877,-7.976 7.11789,-11.58826 0,0 12.32821,-5.20293 12.32821,-5.20293 z"
       inkscape:connector-curvature="0" />
    <path
       style="fill:#280b0b;stroke-width:0.26458332"
       id="path6113"
       d="m 187.1751,50.397742 c -0.47792,8.691152 0.40192,17.406731 1.03533,26.070648 1.13742,15.13089 3.53669,30.12881 5.40861,45.17937 1.33729,11.04928 2.5778,22.11142 3.65014,33.18975 0,0 -11.43007,5.91515 -11.43007,5.91515 v 0 c -0.34493,-11.25443 -1.21129,-22.48662 -2.58509,-33.66356 -1.81166,-15.02872 -4.48783,-29.94185 -5.78442,-45.03107 -0.84723,-8.51148 -1.73604,-17.021171 -2.26702,-25.559986 0,0 11.97252,-6.100302 11.97252,-6.100302 z"
       inkscape:connector-curvature="0" />
  </g>
</svg>
